{"title":"Max.Payne.2008.SWESUB.DVDRip.XviD.AC3.-Zen_Bud","uid":5532022,"size":1471060340,"categoryP":"video","categoryS":"movies","magnet":"?xt=urn:btih:ca09a160319db775a8310a3f7197605c2af8db63&amp;dn=Max.Payne.2008.SWESUB.DVDRip.XviD.AC3.-Zen_Bud&amp;tr=udp%3A%2F%2Ftracker.openbittorrent.com%3A80&amp;tr=udp%3A%2F%2Fopen.demonii.com%3A1337&amp;tr=udp%3A%2F%2Ftracker.coppersurfer.tk%3A6969&amp;tr=udp%3A%2F%2Fexodus.desync.com%3A6969","seeders":2,"leechers":0,"uploader":"Zen_Bud","files":-1,"time":1272959527,"description":"General\nComplete name                    : Max.Payne.avi\nFormat                           : AVI\nFile size                        : 1.37 GiB\nDuration                         : 1h 43mn\nOverall bit rate                 : 1 903 Kbps\n\nVideo\nID                               : 0\nFormat                           : MPEG-4 Visual\nCodec ID/Hint                    : XviD\nDuration                         : 1h 43mn\nBit rate                         : 1 445 Kbps\nWidth                            : 720 pixels\nHeight                           : 428 pixels\nDisplay aspect ratio             : 2.35:1\nResolution                       : 8 bits\nColorimetry                      : 4:2:0\nScan type                        : Progressive\nBits/(Pixel*Frame)               : 0.188\nStream size                      : 1.04 GiB (76%)\nWriting library                  : XviD 1.1.2 (UTC 2006-11-01)\n\nAudio\nID                               : 1\nFormat                           : AC-3\nDuration                         : 1h 43mn\nBit rate                         : 448 Kbps\nChannel(s)                       : 6 channels\nChannel positions                : Front: L C R, Side: L R, LFE\nSampling rate                    : 48.0 KHz\nStream size                      : 330 MiB (24%)\n\n\n","torrent":{"xt":"urn:btih:ca09a160319db775a8310a3f7197605c2af8db63","amp;dn":"Max.Payne.2008.SWESUB.DVDRip.XviD.AC3.-Zen_Bud","amp;tr":["udp%3A%2F%2Ftracker.openbittorrent.com%3A80","udp%3A%2F%2Fopen.demonii.com%3A1337","udp%3A%2F%2Ftracker.coppersurfer.tk%3A6969","udp%3A%2F%2Fexodus.desync.com%3A6969"],"infoHash":"ca09a160319db775a8310a3f7197605c2af8db63","infoHashBuffer":{"type":"Buffer","data":[202,9,161,96,49,157,183,117,168,49,10,63,113,151,96,92,42,248,219,99]},"announce":[],"urlList":[]}}